<?xml version="1.0" encoding="iso-8859-1"?>
<!-- Generator: Adobe Illustrator 19.0.0, SVG Export Plug-In . SVG Version: 6.00 Build 0)  -->
<svg version="1.1" id="Capa_1" xmlns="http://www.w3.org/2000/svg" xmlns:xlink="http://www.w3.org/1999/xlink" x="0px" y="0px"
	 viewBox="0 0 512 512" style="enable-background:new 0 0 512 512;" xml:space="preserve">
<circle style="fill:#C9F3FF;" cx="438" cy="74.46" r="64"/>
<path style="fill:#FF5D5D;" d="M483.576,114.981c0-9.585-6.831-17.808-16.253-19.565l-11.592-2.162l-35.508,0.008l-11.549,2.154
	c-9.422,1.757-16.254,9.981-16.254,19.565v4.39c11.607,11.778,27.737,19.086,45.58,19.086c17.841,0,33.969-7.307,45.576-19.082
	V114.981z"/>
<path style="fill:#FCC69D;" d="M437.998,51.521L437.998,51.521c-11.987,0-21.704,9.717-21.704,21.704v6.79
	c0,11.987,9.717,21.704,21.704,21.704l0,0c11.987,0,21.704-9.717,21.704-21.704v-6.79C459.702,61.238,449.985,51.521,437.998,51.521
	z"/>
<circle style="fill:#C9F3FF;" cx="337.84" cy="417.54" r="84"/>
<path style="fill:#A0E557;" d="M397.656,470.731c0-12.58-8.966-23.373-21.333-25.68l-15.215-2.838l-46.604,0.011l-15.158,2.827
	c-12.367,2.306-21.333,13.1-21.333,25.68v5.761c15.234,15.459,36.405,25.051,59.824,25.051c23.416,0,44.585-9.59,59.819-25.045
	V470.731z"/>
<path style="fill:#FCC69D;" d="M337.835,387.439L337.835,387.439c-15.733,0-28.486,12.754-28.486,28.486v8.912
	c0,15.733,12.754,28.486,28.486,28.486l0,0c15.733,0,28.486-12.754,28.486-28.486v-8.912
	C366.321,400.193,353.567,387.439,337.835,387.439z"/>
<circle style="fill:#C9F3FF;" cx="94" cy="171.95" r="84"/>
<path style="fill:#4DBAF6;" d="M153.819,225.138c0-12.58-8.966-23.373-21.333-25.68l-15.215-2.838l-46.604,0.011l-15.158,2.827
	c-12.367,2.306-21.333,13.1-21.333,25.68v5.761C49.41,246.358,70.581,255.95,94,255.95c23.416,0,44.585-9.59,59.819-25.045V225.138z
	"/>
<path style="fill:#FCC69D;" d="M93.997,141.846L93.997,141.846c-15.733,0-28.486,12.754-28.486,28.486v8.912
	c0,15.733,12.754,28.486,28.486,28.486l0,0c15.733,0,28.486-12.754,28.486-28.486v-8.912
	C122.484,154.6,109.73,141.846,93.997,141.846z"/>
<path d="M331.96,116.01c2.63,0,5.21-1.07,7.07-2.93c1.86-1.86,2.93-4.44,2.93-7.07c0-2.64-1.07-5.21-2.93-7.08
	c-1.86-1.86-4.44-2.92-7.07-2.92s-5.21,1.06-7.07,2.92c-1.86,1.87-2.93,4.44-2.93,7.08c0,2.63,1.07,5.21,2.93,7.07
	C326.75,114.94,329.33,116.01,331.96,116.01z"/>
<path d="M179.46,249.67c-2.63,0-5.21,1.07-7.07,2.93c-1.86,1.86-2.93,4.44-2.93,7.07s1.07,5.21,2.93,7.07
	c1.86,1.86,4.44,2.93,7.07,2.93s5.21-1.07,7.07-2.93s2.93-4.44,2.93-7.07s-1.07-5.21-2.93-7.07
	C184.67,250.74,182.09,249.67,179.46,249.67z"/>
<path d="M438,0.457c-40.804,0-74,33.196-74,74s33.196,74,74,74s74-33.196,74-74S478.804,0.457,438,0.457z M438,20.457
	c29.776,0,54,24.224,54,54c0,7.884-1.712,15.371-4.762,22.129c-4.355-5.577-10.666-9.605-18.038-10.992
	c0.323-1.813,0.502-3.675,0.502-5.58v-6.79c0-17.482-14.222-31.704-31.704-31.704s-31.704,14.222-31.704,31.704v6.79
	c0,1.904,0.178,3.767,0.502,5.58c-7.37,1.386-13.681,5.414-18.035,10.988C385.712,89.825,384,82.339,384,74.457
	C384,44.681,408.224,20.457,438,20.457z M426.294,80.015v-6.79c0-6.454,5.25-11.704,11.704-11.704s11.704,5.25,11.704,11.704v6.79
	c0,6.454-5.25,11.704-11.704,11.704S426.294,86.468,426.294,80.015z M402.42,115.027v-0.046c0-4.767,3.401-8.86,8.087-9.734
	l6.774-1.263c5.561,4.813,12.802,7.736,20.717,7.736s15.156-2.922,20.717-7.736l6.775,1.263c4.686,0.874,8.087,4.968,8.087,9.734
	v0.049c-9.509,8.349-21.957,13.427-35.576,13.427C424.379,128.457,411.93,123.377,402.42,115.027z"/>
<path d="M337.837,323.543c-22.289,0-42.786,7.803-58.916,20.814l-67.833-67.37c-3.919-3.893-10.25-3.871-14.142,0.048
	c-3.892,3.918-3.87,10.25,0.048,14.142l67.77,67.308c-13.079,16.152-20.928,36.704-20.928,59.058c0,51.832,42.168,94,94,94
	s94-42.168,94-94S389.669,323.543,337.837,323.543z M288.014,472.207v-1.476c0-7.761,5.537-14.426,13.166-15.849l10.402-1.94
	c6.882,6.433,16.113,10.382,26.254,10.382s19.372-3.949,26.253-10.382l10.401,1.94c7.629,1.423,13.167,8.088,13.167,15.849v1.481
	c-13.158,12.002-30.648,19.331-49.819,19.331C318.664,491.543,301.173,484.211,288.014,472.207z M356.321,424.837
	c0,10.193-8.293,18.486-18.486,18.486s-18.486-8.293-18.486-18.486v-8.912c0-10.193,8.293-18.486,18.486-18.486
	s18.486,8.293,18.486,18.486V424.837z M402.886,452.798c-5.128-8.952-14.005-15.577-24.73-17.578l-3.105-0.579
	c0.826-3.132,1.27-6.417,1.27-9.804v-8.912c0-21.222-17.265-38.486-38.486-38.486s-38.486,17.265-38.486,38.486v8.912
	c0,3.387,0.444,6.672,1.27,9.804l-3.106,0.579c-10.722,2-19.598,8.623-24.727,17.573c-5.705-10.486-8.949-22.497-8.949-35.251
	c0-40.804,33.196-74,74-74s74,33.196,74,74C411.837,430.299,408.593,442.311,402.886,452.798z"/>
<path d="M186.744,156.625L298.41,125.68c5.322-1.475,8.441-6.985,6.966-12.307c-1.474-5.322-6.984-8.442-12.307-6.966
	l-111.667,30.945C167.593,102.591,133.621,77.95,94,77.95c-51.832,0-94,42.168-94,94s42.168,94,94,94s94-42.168,94-94
	C188,166.732,187.566,161.614,186.744,156.625z M44.176,226.614v-1.476c0-7.761,5.537-14.426,13.166-15.849l10.402-1.94
	c6.882,6.433,16.113,10.381,26.254,10.381s19.372-3.949,26.253-10.381l10.402,1.94c7.629,1.423,13.166,8.088,13.166,15.849v1.481
	C130.66,238.62,113.171,245.95,94,245.95C74.827,245.95,57.335,238.618,44.176,226.614z M112.484,179.245
	c0,10.193-8.293,18.486-18.486,18.486s-18.486-8.292-18.486-18.486v-8.912c0-10.193,8.293-18.486,18.486-18.486
	s18.486,8.293,18.486,18.486V179.245z M159.049,207.205c-5.128-8.952-14.005-15.577-24.73-17.577l-3.105-0.579
	c0.826-3.132,1.27-6.417,1.27-9.804v-8.912c0-21.221-17.265-38.486-38.486-38.486s-38.486,17.265-38.486,38.486v8.912
	c0,3.387,0.444,6.672,1.27,9.804l-3.106,0.579c-10.722,2-19.598,8.622-24.727,17.573C23.243,196.714,20,184.704,20,171.95
	c0-40.804,33.196-74,74-74s74,33.196,74,74C168,184.706,164.755,196.718,159.049,207.205z"/>
<g>
</g>
<g>
</g>
<g>
</g>
<g>
</g>
<g>
</g>
<g>
</g>
<g>
</g>
<g>
</g>
<g>
</g>
<g>
</g>
<g>
</g>
<g>
</g>
<g>
</g>
<g>
</g>
<g>
</g>
</svg>
